<svg id="Layer_1" data-name="Layer 1" xmlns="http://www.w3.org/2000/svg" viewBox="0 0 74.16 99.71"><defs><style>.cls-1{fill:#fda61d;}.cls-2{fill:#fff;}.cls-3{fill:#b3d8e3;}.cls-4{fill:#ffd7c7;}.cls-5{fill:#fcce4d;}.cls-6{fill:#33302d;}.cls-7{fill:#fb9a80;}.cls-8{fill:#ffbdaa;}.cls-9{fill:#ffc2c2;}.cls-10{fill:#333e40;}</style></defs><title>icon_student_nu</title><path class="cls-1" d="M41.27,75.49s14.34-1,15.62,0-1.24,4.76-1.24,4.76L46.84,85.7l-4.65-6.1Z" transform="translate(-13.39 0)"/><path class="cls-2" d="M45.34,79.6s2.4,1.48,8.11.3l-3.66,9Z" transform="translate(-13.39 0)"/><path class="cls-3" d="M49.4,81.76a7.25,7.25,0,0,1-4.59-1.36l.29-.33s3.17,2.62,9.15.22l.16.41A13.45,13.45,0,0,1,49.4,81.76Z" transform="translate(-13.39 0)"/><path class="cls-4" d="M30.85,92.52a43.22,43.22,0,0,0,.22,6.93c.06.49,3.54.13,7.6.14V92.52Z" transform="translate(-13.39 0)"/><path class="cls-4" d="M67.76,92.52a44.42,44.42,0,0,1,0,6.75c-.06.49-3.77.31-7.82.31V92.52Z" transform="translate(-13.39 0)"/><path class="cls-5" d="M49.08,85c.61-1.42,2.84-5.88,3.06-7.06a19.85,19.85,0,0,1,5.14-.81c4.62,1.66,6.29,3.8,8.41,6.76,1.29,1.86,1.88,5.31,2.06,8.62H59.94v7.07l-7,0-3.33,0c-2.2,0-8.43,0-10.94,0V92.52H30.85c.18-3.32.78-6.76,2.07-8.62,2.11-3,3.79-5.09,8.41-6.76a9.6,9.6,0,0,1,4,.62C46.29,78,49.08,85,49.08,85Z" transform="translate(-13.39 0)"/><path class="cls-1" d="M49.08,85l-2.85-7.25s-2.43-1-5-2.28l-4,3.08L43,82.77,46,79.54Z" transform="translate(-13.39 0)"/><circle class="cls-1" cx="35.68" cy="86.54" r="0.84"/><circle class="cls-1" cx="35.68" cy="91.02" r="0.84"/><path class="cls-1" d="M49.07,85l2.85-7.25s2.43-1,5-2.28l4,3.08-5.73,4.2L52.2,79.54Z" transform="translate(-13.39 0)"/><path class="cls-2" d="M54.31,89.69H53V87.81h.38v1.5h.94Z" transform="translate(-13.39 0)"/><path class="cls-2" d="M54.88,89.69h-.38V87.81h.38Z" transform="translate(-13.39 0)"/><path class="cls-2" d="M55.61,89.69h-.38V87.81h.38v.94l.7-.94h.43l-.59.79.59,1.08H56.3l-.41-.76-.29.38Z" transform="translate(-13.39 0)"/><path class="cls-2" d="M58.38,89.69H58v-.38h-.75v.38h-.37V88.56a.73.73,0,0,1,.06-.29A.76.76,0,0,1,57.1,88a.75.75,0,0,1,.24-.16.76.76,0,0,1,.58,0,.75.75,0,0,1,.4.4.73.73,0,0,1,.06.29ZM58,88.94v-.38a.37.37,0,0,0,0-.15.37.37,0,0,0-.2-.2.38.38,0,0,0-.29,0,.37.37,0,0,0-.2.2.37.37,0,0,0,0,.15v.38Z" transform="translate(-13.39 0)"/><circle class="cls-2" cx="35.94" cy="86.68" r="0.82"/><path class="cls-6" d="M26.81,57.87a61.26,61.26,0,0,1-8.74,7.88c-2.36,1.83-6,4.69-4.19,8.08.18-.25.48-.45.64-.7a6,6,0,0,0-.17,4.27c.75,1.92,1.8,1.48,1.24-.18-.55,2.52,4.24,8.39,4.47,4.68,1.4.93,1.92,3.14,4.1,2.78,1.05-.17,2-1.45,2.8-2.09,3.48.79,4.54-.39,5.33-3.89a20.56,20.56,0,0,0,.43-5.82c-.07-2-.83-3.86-1.08-5.83C31,62.3,29,58.94,27.48,54.48" transform="translate(-13.39 0)"/><path class="cls-5" d="M30.35,61.2a16.75,16.75,0,0,1-3-1.54c-.6-.38-1.7-1.55-2.39-1.62s-3,1.85-2.7,2.61c.83,1.94,2.55,2.92,4.41,3.7,1.14.48,4.19,1.67,5.07.87a3.43,3.43,0,0,0,.51-2.43C32.06,61.54,31.55,61.64,30.35,61.2Z" transform="translate(-13.39 0)"/><path class="cls-6" d="M69.05,57.79a61.22,61.22,0,0,0,9.44,7c2.52,1.6,6.4,4.11,4.92,7.65-.2-.24-.52-.41-.7-.64a6,6,0,0,1,.57,4.24c-.56,2-1.65,1.64-1.26-.07.78,2.46-3.43,8.75-4,5.08-1.31,1.06-1.62,3.3-3.82,3.15-1.06-.08-2.14-1.25-3-1.82-3.39,1.11-4.56,0-5.67-3.37a20.56,20.56,0,0,1-1-5.76c-.12-2,.46-3.93.53-5.9.15-4.77,1.85-8.31,3-12.89" transform="translate(-13.39 0)"/><path class="cls-5" d="M65.93,61.43a16.64,16.64,0,0,0,2.81-1.81c.57-.43,1.55-1.7,2.23-1.83s3.18,1.56,2.93,2.34c-.64,2-2.26,3.14-4,4.1-1.09.59-4,2.05-5,1.34a3.43,3.43,0,0,1-.74-2.37C64.27,61.93,64.78,62,65.93,61.43Z" transform="translate(-13.39 0)"/><path class="cls-6" d="M37.45,3.4A22.37,22.37,0,0,1,40.24,2a41,41,0,0,1,24.87-.14C69.57,3.23,73.51,6.25,77.2,9c12,8.9,13.94,33.07,3.93,44-5.29,5.77-11.64,11.29-19.44,12.53-8.72,1.39-21.3,2-30-.2-10.42-2.65-14.94-11.14-17-20.83C11.07,27.41,18.52,6.76,37.45,3.4" transform="translate(-13.39 0)"/><path class="cls-4" d="M53.05,74.6s-.38-5.55,0-6.38c0,0,7.47-.24,13.23-3.56,2.63-1.51,4.72-3.32,8.38-8.59.58-.83,3.5.86,6.25-.89,6.77-4.26,4.51-11.28-3.26-10.78a99.34,99.34,0,0,1,1.75-12V27.62c-1.5-6-4.26-13-9.27-17.29A32.25,32.25,0,0,0,49.28,3.41l-3.1.09a33.69,33.69,0,0,0-9.29,2l-2,.81a29.33,29.33,0,0,0-6.52,4c-5,4.26-7.77,11.28-9.27,17.29v4.76a99.16,99.16,0,0,1,1.75,12c-7.77-.5-10,6.52-3.26,10.78,2.76,1.75,5.68.06,6.25.89,3.66,5.27,5.76,7.08,8.38,8.59C38,68,45.49,68.23,45.49,68.23c.4.83,0,6.38,0,6.38a14.7,14.7,0,0,1-4,2.19s5.58,6.31,8.51,6.74c0,0,6.12-5.52,6.8-6.8A12.09,12.09,0,0,1,53.05,74.6Z" transform="translate(-13.39 0)"/><path class="cls-7" d="M41.43,52.46l.68.35.78.36,1,.39c.39.11.8.27,1.26.36l.69.16.73.12c.49.11,1,.11,1.54.18s1.07,0,1.6.07,1.1,0,1.62-.05,1-.06,1.53-.16A13.94,13.94,0,0,0,54.32,54c.46-.09.87-.24,1.26-.34l1-.38.79-.36.67-.35s-.2.19-.58.5a10.76,10.76,0,0,1-1.73,1.06,10.39,10.39,0,0,1-1.27.51l-.71.23L53,55a14,14,0,0,1-1.63.25c-.56.05-1.08.05-1.66.08s-1.13,0-1.68-.1A13.75,13.75,0,0,1,46.46,55l-.76-.18L45,54.55A10.75,10.75,0,0,1,43.73,54,11.44,11.44,0,0,1,42,53C41.63,52.64,41.43,52.46,41.43,52.46Z" transform="translate(-13.39 0)"/><path class="cls-8" d="M21.51,51.18c-.29-2.14-2.11-4.8-4-3.7-.52.31-.59,1.16-.62,1.69-.09,1.65.65,3.74,2.39,4.23S21.71,52.68,21.51,51.18Z" transform="translate(-13.39 0)"/><path class="cls-8" d="M77,51.18c.29-2.14,2.11-4.8,4-3.7.52.31.59,1.16.62,1.69.09,1.65-.65,3.74-2.39,4.23S76.81,52.68,77,51.18Z" transform="translate(-13.39 0)"/><path class="cls-6" d="M37.76,28.76s0-.08,0-.21,0-.15,0-.24a.57.57,0,0,1,.08-.31,3,3,0,0,1,.2-.38,1.77,1.77,0,0,1,.31-.33,1.33,1.33,0,0,1,.38-.28c.14-.07.29-.15.43-.22l.46-.11a1.71,1.71,0,0,1,.45,0,2.28,2.28,0,0,1,.79.11,1.73,1.73,0,0,1,.51.24l.17.12-.21.05c-.13,0-.3,0-.51.1l-.32.07c-.11,0-.23.07-.34.09s-.47.14-.71.21l-.34.14a1.39,1.39,0,0,0-.32.15c-.09.06-.22.1-.29.16a1.94,1.94,0,0,1-.23.16.61.61,0,0,0-.21.19l-.16.18Z" transform="translate(-13.39 0)"/><path class="cls-7" d="M49.15,37.56s0,.23.08.64l.15,1.68c0,.34.08.72.15,1.09,0,.19.07.38.12.58l.17.58a3.82,3.82,0,0,0,.58,1,1.41,1.41,0,0,0,.4.42,4.06,4.06,0,0,0,.53.32,6.28,6.28,0,0,1,1.26.8,1.61,1.61,0,0,1,.47.76,1.85,1.85,0,0,1,0,.84v0h0l0,.06v0l0,.08-.06.15a2,2,0,0,1-.13.3,5.09,5.09,0,0,1-.42.6c-.16.15-.3.31-.46.44l-.48.33a3.49,3.49,0,0,1-.93.39,2.55,2.55,0,0,1-.76.1,1.39,1.39,0,0,1-.48-.08l-.16,0h.17a1.68,1.68,0,0,0,.46,0,2.28,2.28,0,0,0,.66-.24,4.53,4.53,0,0,0,.75-.49l.37-.35.34-.41c.1-.14.16-.29.25-.43a2.89,2.89,0,0,0,.09-.3l0-.15,0-.08v0h0v0h0v0a.9.9,0,0,0-.3-.85,6,6,0,0,0-1.1-.65,3.12,3.12,0,0,1-1.19-1,4.13,4.13,0,0,1-.64-1.33l-.14-.67c0-.22,0-.43-.06-.64a9.35,9.35,0,0,1,0-1.16C49,38.48,49.15,37.56,49.15,37.56Z" transform="translate(-13.39 0)"/><path class="cls-9" d="M30.28,47.58c1.11.58,4.26,1,4.28-.89s-3.29-2-4.51-1.51C28.45,45.9,28.9,46.87,30.28,47.58Z" transform="translate(-13.39 0)"/><path class="cls-6" d="M39.59,42.88c1.43-.09,1.49-2.12,1.24-3.14a2.2,2.2,0,0,0-.94-1.5,1.26,1.26,0,0,0-1.61.61C37.78,40,37.71,43,39.59,42.88Z" transform="translate(-13.39 0)"/><path class="cls-10" d="M60.09,27.91l-.16-.15-.16-.18a.61.61,0,0,0-.21-.19,2,2,0,0,1-.23-.16c-.07-.06-.2-.09-.29-.16a1.4,1.4,0,0,0-.31-.15l-.34-.14c-.24-.07-.47-.16-.71-.21s-.23-.08-.34-.09L57,26.42c-.2-.06-.38-.06-.51-.1l-.21-.05.17-.12a1.73,1.73,0,0,1,.51-.24,2.31,2.31,0,0,1,.79-.11,1.73,1.73,0,0,1,.45,0l.46.11c.15.06.29.14.43.22a1.34,1.34,0,0,1,.38.28,1.77,1.77,0,0,1,.3.33,3,3,0,0,1,.2.38.57.57,0,0,1,.08.31c0,.09,0,.17,0,.24S60.09,27.91,60.09,27.91Z" transform="translate(-13.39 0)"/><path class="cls-9" d="M67.57,47.58c-1.11.58-4.27,1-4.28-.89s3.29-2,4.51-1.51C69.4,45.9,69,46.87,67.57,47.58Z" transform="translate(-13.39 0)"/><path class="cls-6" d="M58.22,42.88c-1.43-.07-1.52-2.1-1.29-3.12a2.2,2.2,0,0,1,.91-1.51,1.26,1.26,0,0,1,1.62.59C60,40,60.11,43,58.22,42.88Z" transform="translate(-13.39 0)"/><path class="cls-6" d="M22,37.6a18.84,18.84,0,0,1,1.19-4.79,53.13,53.13,0,0,1,4.18-8.46,60.62,60.62,0,0,1,7.16-8.68C33.67,21,42,28.22,46.45,28.8c-.8-1.74-3.14-4.45-4.39-7.08C47.45,27,55.72,32.65,63.88,30.08a65,65,0,0,1-7.28-8.25,64.55,64.55,0,0,0,10.28,7.66,49,49,0,0,0,7.41,3.76c3.07,1.07,3.17,1.64,3.17,4.06,0,1.54.33,8.16-.49,9.19,4.63-5.77,4.35-17.66,1.82-25.38-2.15-7-8.87-14.06-15.71-16.85C57.76,2.24,49,2.32,43.56,3c-3.93.38-17.53,6.34-19.43,9,0,0-5.5,7.77-6.71,15.28-.51,3.2,1.4,15.47,2.47,19.26,0,0,.63,2.27,1,.72C21.69,44,21.6,40.79,22,37.6Z" transform="translate(-13.39 0)"/></svg>